<?xml version="1.0" encoding="utf-8"?>
<!-- Generator: Adobe Illustrator 25.4.1, SVG Export Plug-In . SVG Version: 6.00 Build 0)  -->
<svg version="1.1" id="Õ__1" xmlns="http://www.w3.org/2000/svg" xmlns:xlink="http://www.w3.org/1999/xlink" x="0px" y="0px"
	 viewBox="0 0 55.7 41.2" style="enable-background:new 0 0 55.7 41.2;" xml:space="preserve">
<style type="text/css">
	.st0{fill:#414141;}
</style>
<path class="st0" d="M54.7,1.9c0,0,0-0.1,0-0.2c0-0.1,0-0.2-0.1-0.2c0-0.1-0.1-0.2-0.1-0.2c0,0,0-0.1-0.1-0.1h-0.1
	C54.3,1.1,54.3,1,54.2,1L54,0.9c-0.1,0-0.1,0-0.2-0.1c-0.1,0-0.2-0.1-0.3-0.1H1.9c-0.1,0-0.2,0-0.3,0.1c-0.1,0-0.1,0-0.2,0.1L1.2,1
	C1.2,1,1.1,1.1,1,1.2l0,0C1,1.2,1,1.3,1,1.3c0,0.1-0.1,0.1-0.1,0.2c0,0.1,0,0.2-0.1,0.2s0,0.1,0,0.2v37.2c0,0.2,0,0.3,0.1,0.5
	c0.1,0.3,0.4,0.5,0.7,0.7c0.1,0.1,0.3,0.1,0.5,0.1h51.4c0.2,0,0.3,0,0.5-0.1c0.3-0.1,0.5-0.4,0.7-0.7c0.1-0.2,0.1-0.3,0.1-0.5V1.9z
	 M39.8,23.7c-0.5-0.5-1.3-0.5-1.8,0s-0.5,1.3,0,1.8l12.4,12.4H5l12.4-12.4c0.5-0.5,0.6-1.3,0.1-1.8c-0.5-0.5-1.3-0.6-1.8-0.1
	c0,0-0.1,0.1-0.1,0.1L3.2,36.1V4.5l23.7,18.9c0.2,0.2,0.5,0.3,0.8,0.3c0.3,0,0.6-0.1,0.8-0.3L52.2,4.5v31.6L39.8,23.7z M5.5,3.2
	h44.3L27.7,20.9L5.5,3.2z"/>
</svg>
